<svg xmlns="http://www.w3.org/2000/svg" viewBox="0 0 1024 1024"><path d="M1024 853.3248v-2.1504 2.1504z" fill="#231F20"></path><path d="M0 170.6752h1023.9488v682.6496H0z" fill="#004990"></path><path d="M0 170.6752h511.9744V512H0z" fill="#004990"></path><path d="M511.9744 290.1248h-204.8V170.6752H204.8v119.4496H0v102.4h204.8V512h102.3744v-119.4752h204.8z" fill="#FFFFFF"></path><path d="M511.9744 472.7808L58.752 170.6752H0v39.552L452.7872 512h59.1872z" fill="#FFFFFF"></path><path d="M0 472.7808L453.2224 170.6752h58.752v39.552L59.1872 512H0z" fill="#FFFFFF"></path><path d="M511.9744 311.4496h-226.1504V170.6752H226.1504v140.7744H0V371.2h226.1504V512h59.6736v-140.8h226.1504z" fill="#EF3E42"></path><path d="M511.9744 511.0272v-26.9824l-137.6-91.52H333.824zM511.9744 170.6752h-40.448l-164.352 109.2864v10.1632h25.2672l179.5328-119.3984zM178.2016 392.5248L0 511.0528V512h39.0912L204.8 401.8176v-9.2928zM0 170.9312v26.9312l138.752 92.2624h40.5504z" fill="#EF3E42"></path><path d="M256 604.1856l15.5904 48.4608 47.5904-18.0224-28.1344 42.368 43.7504 26.0096-50.6624 4.3776 6.912 50.4064L256 720.9216l-35.072 36.864 6.9632-50.4064-50.6624-4.3776 43.6992-26.0096-28.1344-42.368 47.6416 18.0224zM767.9744 701.3888l7.6288 23.7056 23.2448-8.8064-13.7472 20.7104 21.3504 12.6976-24.7296 2.1504 3.3792 24.6272-17.1264-18.0224-17.1008 18.0224 3.3536-24.6272-24.704-2.1504 21.3504-12.6976-13.7472-20.7104 23.2448 8.8064zM640.0768 431.232l7.6032 23.7056 23.2448-8.832-13.7472 20.736 21.4272 12.672-24.832 2.1248 3.456 24.6784-17.152-18.0224-17.152 18.0224 3.456-24.6784-24.8064-2.1248 21.4016-12.672-13.7472-20.736 23.1936 8.832zM767.9744 246.8096l7.6288 23.6544 23.2448-8.8064-13.7472 20.7104 21.3504 12.7232-24.7296 2.176 3.3792 24.6528-17.1264-18.048-17.1008 18.048 3.3536-24.6528-24.704-2.176 21.3504-12.7232-13.7472-20.7104 23.2448 8.8064zM881.7152 386.1504l7.5776 23.7056 23.2704-8.8064-13.7472 20.7616 21.376 12.6464-24.7808 2.176 3.4048 24.6272-17.1008-18.048-17.152 18.048 3.456-24.6272-24.8064-2.176 21.4016-12.6464-13.7984-20.7616 23.2448 8.8064zM819.456 519.9616l5.8624 14.336 15.488 1.1264-11.904 10.0352 3.7632 15.0528-13.2096-8.192-13.1584 8.192 3.712-15.0528-11.904-10.0352 15.5136-1.1264z" fill="#FFFFFF"></path></svg>
