<svg xmlns="http://www.w3.org/2000/svg" viewBox="0 0 1024 1024"><path d="M1024 853.3504v-2.176 2.176z" fill="#231F20"></path><path d="M0 170.6496h256v682.6496H0z" fill="#E31937"></path><path d="M256 170.6496h512v682.6496H256z" fill="#FFFFFF"></path><path d="M767.9744 170.6496h256v682.6496h-256zM512 742.5024h8.0896l-2.6112-107.6736 7.5008-6.4256c33.7408 4.0192 64.0256 7.6544 97.792 11.7504l-8.6016-29.4144a13.824 13.824 0 0 1 4.4544-13.9776l98.0736-83.2512-20.3264-10.0096c-8.9088-3.3536-6.4-8.576-3.2-21.1968l14.9248-56.9088-56.9344 12.5184a8.704 8.704 0 0 1-10.112-6.3232l-7.3728-26.7776-45.0304 52.736c-6.4 8.448-19.3792 8.448-15.36-11.1104l19.2768-106.8032-25.8304 14.0032c-7.2448 4.1984-14.4896 4.8896-18.5856-2.6624L512 281.4976l-36.2496 69.504c-4.0448 7.552-11.3152 6.8608-18.56 2.6624l-25.8048-14.0032 19.2512 106.8032c3.9936 19.5584-8.96 19.5584-15.36 11.1104l-45.0816-52.736-7.296 26.7776a8.704 8.704 0 0 1-10.0864 6.3232l-56.9856-12.5184 14.9504 56.9088c3.2256 12.6208 5.7344 17.8432-3.2 21.1968l-20.352 10.0096 98.0992 83.2512a13.824 13.824 0 0 1 4.48 13.9776l-8.6016 29.4144c33.7152-4.096 64.0256-7.7312 97.7664-11.7504l7.5008 6.4256-2.6112 107.6736H512z" fill="#E31937"></path></svg>
