<svg viewBox="0 0 1024 1024"><path d="M0 170.6496h1024v682.6496H0z" fill="#01247D"></path><path d="M1024 170.6496h-117.5296L614.4 365.3376V170.6496h-204.8v194.7136L117.504 170.6496H0v79.0528L239.8976 409.6H0v204.8h240.768L0 774.8864v78.4128h118.4L409.6 659.2v194.0992h204.8V659.2l291.2 194.0992H1024v-78.4128L783.232 614.4H1024v-204.8h-239.8976L1024 249.7024z" fill="#FFFFFF"></path><path d="M1024 571.6992H571.7248v281.6h-119.4752v-281.6H0v-119.4496h452.2496v-281.6h119.4752v281.6H1024v119.4496z m0 279.6544v-53.9392L748.7744 614.4h-81.0752L1024 851.3536z m0-680.704h-80.9728L614.4 389.1968V409.6h50.4576L1024 170.7008v-0.0512zM356.4032 614.4L0 851.4048v1.8944h78.208L409.6 632.9088V614.4h-53.1968zM0 171.1104v53.888L277.504 409.6h81.0752L0 171.1104z" fill="#CF142B"></path></svg>
